<svg id="Layer_1" data-name="Layer 1" xmlns="http://www.w3.org/2000/svg" viewBox="0 0 316.66 348.8"><defs><style>.cls-1{fill:#2bade2;}</style></defs><circle class="cls-1" cx="158.33" cy="57.87" r="57.87"/><path class="cls-1" d="M297.34,407.61,242.46,507.5a11,11,0,0,1-9.63,5.7h-37a11,11,0,0,1-9.77-16l56.55-110.29a11,11,0,0,0,.38-9.18l-16.69-40.68a11,11,0,0,0-18.18-3.33l-12.5,13.33a11,11,0,0,0-2.08,11.82l9.78,23a11,11,0,0,1-4.89,14l-17.85,9.63a11,11,0,0,1-15.08-4.82L140.67,350A11,11,0,0,1,143,337.17l56.53-53.26a56.53,56.53,0,0,1,21.23-12.62L243,264a11,11,0,0,1,10.78,2.28c12.07,10.76,47.33,35.2,88.88-.23a11,11,0,0,1,10.65-2.1l21.89,7.31a56.6,56.6,0,0,1,20.93,12.51l56.65,53.38A11,11,0,0,1,455.08,350l-24.86,50.6a11,11,0,0,1-15.08,4.82l-17.85-9.63a11,11,0,0,1-4.88-14l9.78-23a11,11,0,0,0-2.09-11.82L387.22,333.3a11,11,0,0,0-18.05,3l-18.71,41.86a11,11,0,0,0,.34,9.67L409.22,497a11,11,0,0,1-9.69,16.17H362.92a11,11,0,0,1-9.63-5.7l-54.88-99.89" transform="translate(-139.55 -164.4)"/></svg>